HIERARCHY
ROOT Hips
{
  OFFSET -35.4901 99.2528 17.4586
  CHANNELS 6 Xposition Yposition Zposition Zrotation Xrotation Yrotation
  JOINT LeftUpLeg
  {
    OFFSET 8.64259 1.95398 -2.38835
    CHANNELS 3 Zrotation Xrotation Yrotation
    JOINT LeftLeg
    {
      OFFSET 43.7702 0 0
      CHANNELS 3 Zrotation Xrotation Yrotation
      JOINT LeftFoot
      {
        OFFSET 40.6238 0 0
        CHANNELS 3 Zrotation Xrotation Yrotation
        JOINT LeftToeBase
        {
          OFFSET 12.7242 0 0
          CHANNELS 3 Zrotation Xrotation Yrotation
          End Site
          {
            OFFSET 0 0 0
          }
        }
      }
    }
  }
  JOINT RightUpLeg
  {
    OFFSET -8.2249 1.95398 -2.59336
    CHANNELS 3 Zrotation Xrotation Yrotation
    JOINT RightLeg
    {
      OFFSET 43.5653 0 0
      CHANNELS 3 Zrotation Xrotation Yrotation
      JOINT RightFoot
      {
        OFFSET 40.6238 0 0
        CHANNELS 3 Zrotation Xrotation Yrotation
        JOINT RightToeBase
        {
          OFFSET 12.7242 0 0
          CHANNELS 3 Zrotation Xrotation Yrotation
          End Site
          {
            OFFSET 0 0 0
          }
        }
      }
    }
  }
  JOINT Spine
  {
    OFFSET 0.165834 0.87714 6.61349
    CHANNELS 3 Zrotation Xrotation Yrotation
    JOINT Spine1
    {
      OFFSET 7.38963 1.71661e-005 0
      CHANNELS 3 Zrotation Xrotation Yrotation
      JOINT Spine2
      {
        OFFSET 11.9445 1.14441e-005 0
        CHANNELS 3 Zrotation Xrotation Yrotation
        JOINT Spine3
        {
          OFFSET 14.7254 4.19617e-005 0
          CHANNELS 3 Zrotation Xrotation Yrotation
          JOINT Spine4
          {
            OFFSET 10.9679 0 0
            CHANNELS 3 Zrotation Xrotation Yrotation
            JOINT RightShoulder
            {
              OFFSET 2.46616 -1.6653 3.69651
              CHANNELS 3 Zrotation Xrotation Yrotation
              JOINT RightArm
              {
                OFFSET 13.0012 0 0
                CHANNELS 3 Zrotation Xrotation Yrotation
                JOINT RightForeArm
                {
                  OFFSET 28.7848 1.52588e-005 0
                  CHANNELS 3 Zrotation Xrotation Yrotation
                  JOINT RightHand
                  {
                    OFFSET 26.5688 1.52588e-005 0
                    CHANNELS 3 Zrotation Xrotation Yrotation
                    End Site
                    {
                      OFFSET 0 0 0
                    }
                  }
                }
              }
            }
            JOINT LeftShoulder
            {
              OFFSET 2.38034 -1.29275 -3.7523
              CHANNELS 3 Zrotation Xrotation Yrotation
              JOINT LeftArm
              {
                OFFSET 16.3182 6.10351e-005 0
                CHANNELS 3 Zrotation Xrotation Yrotation
                JOINT LeftForeArm
                {
                  OFFSET 27.0901 0 0
                  CHANNELS 3 Zrotation Xrotation Yrotation
                  JOINT LeftHand
                  {
                    OFFSET 24.5451 1.52588e-005 0
                    CHANNELS 3 Zrotation Xrotation Yrotation
                    End Site
                    {
                      OFFSET 0 0 0
                    }
                  }
                }
              }
            }
            JOINT Neck
            {
              OFFSET 5.0226 -0.0266342 0
              CHANNELS 3 Zrotation Xrotation Yrotation
              JOINT Head
              {
                OFFSET 6.69364 2.86102e-005 0
                CHANNELS 3 Zrotation Xrotation Yrotation
                End Site
                {
                  OFFSET 0 0 0
                }
              }
            }
          }
        }
      }
    }
  }
}
MOTION
Frames:	10
Frame Time:	0.0416667
43.4025 101.196 -268.246 -161.171 -84.775 -162.294 -178.544 -4.31428 88.7601 -7.78371 2.05472 0.636496 68.8858 4.06147 -2.37454 18.101 -5.52346 8.51011 170.512 -3.24676 88.4511 -8.18282 -9.33563 -0.509574 67.3195 -3.4252 0.348347 23.3587 0.247364 0.131456 0.192105 7.5319 -90.0802 11.8104 0.344399 -0.196401 0.13948 0.335422 -0.21138 -22.396 0.387496 -0.0838166 -2.38336 0.387496 -0.0838222 89.2409 -31.6434 -107.612 39.6572 -13.2113 -5.39995 1.26176 -31.7771 -17.1499 -24.8908 -0.144727 -8.29121 -84.0688 -51.8847 87.8568 -22.5348 17.9238 -18.0721 1.26115 12.1157 -9.12918 2.78381 -0.345771 -10.0339 6.11481 -2.43756 -0.808651 -7.03595 -2.20737 -0.783115 
43.2887 101.128 -268.246 -161.49 -84.9329 -162.541 -178.771 -2.18873 88.8783 -11.713 0.605345 1.10617 70.5477 3.87057 -3.79241 15.0596 -2.50052 4.32938 170.93 -2.75609 88.766 -8.93754 -8.90051 -0.727275 67.1713 -3.40859 1.04516 24.0631 0.284136 -0.0493117 0.194659 7.52348 -90.0563 11.8272 0.360654 -0.150689 0.156289 0.353666 -0.166418 -22.3793 0.389268 -0.0353259 -2.36659 0.389268 -0.0353307 88.6965 -32.7013 -108.243 38.7072 -13.2631 -5.47851 2.14841 -32.4108 -16.5888 -25.2312 -0.249494 -7.76219 -83.8396 -51.6179 88.1674 -22.4423 18.1419 -17.9958 1.1512 12.0119 -9.07247 1.872 -0.322542 -9.89514 5.59927 -2.35666 -1.5147 -6.07736 -2.0064 -0.751843 
43.154 101.138 -268.136 -158.487 -84.974 -159.373 -178.807 -2.03392 89.0297 -11.8677 0.102105 1.27735 70.8114 3.8906 -4.0239 14.3371 -1.67483 3.27296 171.298 -2.72976 89.1393 -9.01957 -8.46738 -0.901767 67.6317 -3.64951 0.859691 23.934 0.37179 -0.240857 0.242126 7.51726 -90.0833 11.8398 0.44239 -0.213138 0.168946 0.432579 -0.232407 -22.3668 0.485991 -0.0703251 -2.35415 0.485989 -0.0703301 88.659 -32.3414 -108.455 39.0176 -12.8009 -6.0597 3.63818 -31.9794 -14.2394 -25.4947 -0.0909955 -8.50733 -83.9256 -51.2416 87.9991 -23.0177 18.4839 -17.8028 0.272088 11.2562 -6.76914 -1.78359 -0.086823 -5.82093 5.66895 -2.38553 -1.39634 -6.22865 -2.0521 -0.823504 
43.0541 101.121 -267.904 -158.776 -85.2394 -159.927 -178.948 -2.21051 88.8014 -11.2809 0.171244 1.29696 70.7673 3.97271 -3.85615 14.3719 -1.6227 3.20621 171.299 -2.46841 89.0157 -9.42731 -8.38689 -1.00238 68.0522 -3.80811 0.79258 23.6064 0.395736 -0.251293 0.234616 7.47743 -90.0874 11.9195 0.425392 -0.22015 0.248558 0.415289 -0.23867 -22.2871 0.471883 -0.0821236 -2.27447 0.471888 -0.0821306 88.9892 -32.0927 -107.921 39.2068 -12.9421 -6.0377 3.20496 -32.1607 -14.7102 -25.0997 -0.086948 -8.61988 -83.967 -51.813 87.9998 -22.8706 18.2288 -17.4368 0.327307 11.1123 -6.86112 -1.41872 -0.0990669 -6.28257 5.69615 -2.30219 -0.427561 -6.49022 -2.11801 -1.6919 
42.7962 101.096 -267.573 -161.516 -85.3572 -162.664 -178.719 -2.46307 89.0667 -11.1637 0.67158 1.18814 70.8226 4.0342 -3.77017 14.3736 -1.3501 2.85406 171.339 -2.69406 89.1619 -9.46262 -8.0769 -0.948636 68.3796 -3.93587 0.962675 23.574 0.613902 -0.760776 0.209274 7.50673 -90.0421 11.8607 0.396383 -0.126331 0.189821 0.390438 -0.143658 -22.3458 0.416023 -0.00135788 -2.33318 0.416019 -0.00135998 88.4713 -32.5618 -108.725 38.6562 -13.2506 -6.34111 4.96494 -31.7507 -13.5711 -27.1997 -0.00324597 -8.6724 -84.0246 -50.9863 87.8231 -23.6685 17.5787 -17.3331 0.709383 11.0438 -6.74652 -1.35785 -0.0979305 -6.36101 5.58826 -2.38303 -1.78077 -5.93824 -1.99242 -0.495415 
42.3863 101.068 -267.194 -162.072 -85.5064 -163.344 -178.645 -2.4846 89.2427 -11.352 0.577715 1.23667 71.1308 4.18741 -4.44271 14.4992 -1.56552 3.1284 171.278 -2.88328 89.2507 -9.4037 -8.05206 -0.825116 68.6945 -4.09151 0.659791 23.6079 0.537338 -0.586332 0.239434 7.49424 -90.0718 11.8858 0.442346 -0.190553 0.214958 0.433533 -0.209848 -22.3208 0.47916 -0.0487977 -2.30814 0.479162 -0.0488042 89.2824 -31.9808 -107.403 39.2944 -12.9617 -6.52833 4.19334 -32.0098 -13.801 -25.1418 0.0495561 -9.31342 -83.7946 -52.069 88.2816 -22.5724 17.5213 -17.5748 0.632594 12.2107 -6.57906 -1.91181 -0.103397 -7.3433 5.64444 -2.41809 -0.48588 -6.2565 -2.2383 -1.31753 
41.7966 101.088 -266.664 -160.513 -85.5759 -161.925 -177.858 -2.95634 89.9406 -10.9063 1.38059 0.512185 71.1511 4.54957 -4.1747 15.3054 -1.93486 3.59425 171.47 -3.27008 89.4744 -9.26609 -7.63979 -0.930279 69.0846 -4.27896 0.984307 22.8747 0.492946 -0.374836 0.25504 7.51275 -90.0541 11.8487 0.481748 -0.159517 0.177854 0.474264 -0.180569 -22.358 0.507409 -0.00734866 -2.34534 0.507423 -0.00734785 88.9718 -31.752 -108.087 39.0584 -13.4085 -6.44092 4.37967 -31.1614 -14.1566 -26.0951 -0.167398 -7.90124 -83.494 -52.6199 88.7808 -21.9933 17.1982 -17.242 0.617302 10.031 -7.10089 -1.98055 -0.100239 -7.85543 5.47867 -2.11267 0.581283 -6.2503 -2.10593 -2.1631 
40.9911 101.029 -265.764 -165.027 -85.3465 -166.798 -177.022 -3.39086 90.5579 -11.8084 2.44925 -0.110833 71.7588 5.10111 -4.18781 15.6115 -1.94572 3.59368 171.393 -4.40779 89.5209 -8.92628 -7.33143 -0.909011 69.7304 -4.5671 0.847362 23.0415 0.461799 -0.326047 0.251545 7.57113 -89.9628 11.7317 0.51782 0.0198434 0.0609088 0.518188 -0.00298175 -22.475 0.487905 0.174549 -2.46237 0.487916 0.174547 88.9706 -31.8473 -108.052 39.0403 -13.2916 -6.24192 3.77214 -32.2685 -14.4499 -25.7199 -0.0270943 -8.87735 -83.5031 -52.6951 88.7747 -21.6604 16.2695 -15.824 0.918153 7.49898 -8.14597 -1.36706 -0.123911 -8.21281 4.70007 -1.95424 1.11977 -5.60809 -2.04141 -2.67632 
40.0984 100.686 -264.995 -162.585 -84.9397 -165.021 -176.303 -2.79971 90.9116 -14.8505 2.06417 -0.691606 73.457 6.08091 -5.26544 18.4557 -3.45343 5.6456 170.238 -3.66859 88.6487 -12.1195 -9.04823 -0.0740528 71.9612 -5.32959 -0.0227393 22.5833 0.31549 0.0743188 0.324977 7.67612 -89.8883 11.5213 0.698825 0.151049 -0.149472 0.704807 0.120141 -22.6858 0.621131 0.354103 -2.67317 0.621119 0.354095 88.6084 -31.0962 -109.05 39.4243 -12.7522 -4.49328 0.176355 -33.434 -19.0958 -24.8805 -0.687704 -5.56941 -83.0263 -53.779 89.5717 -20.7313 15.2499 -15.5469 1.15045 7.46453 -7.94211 -1.5576 -0.121915 -8.78275 4.13114 -1.6315 2.67172 -5.30449 -1.97731 -3.37316 
39.2589 99.6862 -264.566 -165.641 -85.5275 -168.522 -176.093 0.944473 91.4908 -23.2921 1.82398 -0.245299 75.3787 7.37325 -5.70015 22.9558 -5.66215 9.06983 169.536 -1.28504 88.2969 -16.686 -8.63764 0.610784 75.5507 -6.23298 0.703238 23.4843 -0.289858 1.3463 0.397406 7.71571 -89.8119 11.4413 0.878581 0.285725 -0.22938 0.890308 0.246774 -22.7661 0.752086 0.536576 -2.75349 0.752094 0.536579 87.9596 -30.9911 -110.347 38.3744 -12.8638 -5.80353 2.28782 -32.3405 -15.5331 -25.6223 -0.47611 -6.52479 -82.8831 -54.0759 89.8048 -20.1585 14.1369 -14.4573 1.73885 7.05249 -8.86098 -1.17812 -0.136109 -8.67974 3.61339 -1.58527 3.44725 -4.42603 -2.07791 -3.40973 
